<?xml version="1.0" encoding="UTF-8" standalone="no"?>
<!-- Generator: Adobe Illustrator 22.1.0, SVG Export Plug-In . SVG Version: 6.00 Build 0)  -->

<svg
   xmlns:dc="http://purl.org/dc/elements/1.1/"
   xmlns:cc="http://creativecommons.org/ns#"
   xmlns:rdf="http://www.w3.org/1999/02/22-rdf-syntax-ns#"
   xmlns:svg="http://www.w3.org/2000/svg"
   xmlns="http://www.w3.org/2000/svg"
   xmlns:sodipodi="http://sodipodi.sourceforge.net/DTD/sodipodi-0.dtd"
   xmlns:inkscape="http://www.inkscape.org/namespaces/inkscape"
   version="1.1"
   id="Layer_1"
   x="0px"
   y="0px"
   viewBox="0 0 37 37"
   xml:space="preserve"
   width="74"
   height="74"
   sodipodi:docname="html.svg"
   inkscape:version="0.92.1 r15371"><metadata
     id="metadata4496"><rdf:RDF><cc:Work
         rdf:about=""><dc:format>image/svg+xml</dc:format><dc:type
           rdf:resource="http://purl.org/dc/dcmitype/StillImage" /><dc:title></dc:title></cc:Work></rdf:RDF></metadata><defs
     id="defs4494" /><sodipodi:namedview
     pagecolor="#ffffff"
     bordercolor="#666666"
     borderopacity="1"
     objecttolerance="10"
     gridtolerance="10"
     guidetolerance="10"
     inkscape:pageopacity="0"
     inkscape:pageshadow="2"
     inkscape:window-width="1366"
     inkscape:window-height="705"
     id="namedview4492"
     showgrid="false"
     inkscape:zoom="3.9480128"
     inkscape:cx="11.304223"
     inkscape:cy="40.898755"
     inkscape:window-x="-8"
     inkscape:window-y="-8"
     inkscape:window-maximized="1"
     inkscape:current-layer="layer2" /><g
     inkscape:groupmode="layer"
     id="layer1"
     inkscape:label="Layer 1" /><g
     inkscape:groupmode="layer"
     id="layer2"
     inkscape:label="Layer 2"><path
       style="fill:#e54c25;fill-opacity:1;stroke:none;stroke-width:1.01642501px;stroke-linecap:butt;stroke-linejoin:miter;stroke-opacity:1"
       d="M 36.537109 11.505859 L 9.7636719 11.548828 L 14.691406 65.318359 L 36.537109 71.259766 L 57.677734 65.490234 L 62.603516 11.548828 L 36.537109 11.505859 z M 36.556641 22.0625 L 36.5625 22.0625 L 36.5625 29.003906 L 36.556641 29.003906 L 36.556641 22.0625 z M 36.556641 33.466797 L 36.5625 33.466797 L 36.5625 40.40625 L 36.556641 40.40625 L 36.556641 33.466797 z M 36.5625 51.212891 L 36.5625 58.078125 L 36.556641 58.080078 L 36.556641 51.214844 L 36.5625 51.212891 z "
       transform="scale(0.5)"
       id="path5115-1" /><path
       style="fill:#f26529;fill-opacity:1;stroke:none;stroke-width:0.41742125px;stroke-linecap:butt;stroke-linejoin:miter;stroke-opacity:1"
       d="m 18.28125,8.4309895 v 4.3353565 h 0.01043 v 2.850668 h -0.01043 v 1.832801 h 0.01043 v 2.849867 h -0.01043 v 4.442037 l 0.01043,-0.004 v 2.819386 l -0.01043,0.004 v 5.409372 l 8.681945,-2.369408 2.0229,-22.1524325 z"
       id="path5115-1-1"
       inkscape:connector-curvature="0" /><path
       style="fill:#ffffff;fill-opacity:1;stroke:none;stroke-width:0.31331822px;stroke-linecap:butt;stroke-linejoin:miter;stroke-opacity:1"
       d="M 9.3679542,10.583135 H 27.156948 l -0.344389,3.566121 H 13.240008 l 0.392815,3.392349 h 12.962956 l -1.067879,10.971991 -7.266492,2.003865 -7.24169,-2.063386 -0.436484,-5.515589 h 3.472043 l 0.317444,2.817315 3.908529,1.111054 3.928369,-1.150734 0.415904,-4.519915 H 10.404671 Z"
       id="path4557"
       inkscape:connector-curvature="0" /><path
       style="fill:#f2f2f2;fill-opacity:1;stroke:none;stroke-width:0.31331822px;stroke-linecap:butt;stroke-linejoin:miter;stroke-opacity:1"
       d="m 9.3679375,10.58285 1.0361335,10.613281 h 7.887694 v -0.896484 h 0.0098 V 17.541834 H 13.63262 l -0.392578,-3.392578 h 5.061523 v -1.382812 h -0.0098 V 10.58285 Z m 1.2148435,12.355468 0.436524,5.515625 7.242187,2.063477 0.03027,-0.0088 v -2.947266 l 0.0098,-0.0049 V 26.86117 l -0.02051,0.0059 -3.908202,-1.111328 -0.317383,-2.817383 z"
       id="path4557-3"
       inkscape:connector-curvature="0" /></g><g
     inkscape:groupmode="layer"
     id="layer3"
     inkscape:label="Layer 3" /></svg>