<?xml version="1.0" encoding="UTF-8" standalone="no"?>
<!-- Generator: Adobe Illustrator 22.1.0, SVG Export Plug-In . SVG Version: 6.00 Build 0)  -->

<svg
   xmlns:dc="http://purl.org/dc/elements/1.1/"
   xmlns:cc="http://creativecommons.org/ns#"
   xmlns:rdf="http://www.w3.org/1999/02/22-rdf-syntax-ns#"
   xmlns:svg="http://www.w3.org/2000/svg"
   xmlns="http://www.w3.org/2000/svg"
   xmlns:sodipodi="http://sodipodi.sourceforge.net/DTD/sodipodi-0.dtd"
   xmlns:inkscape="http://www.inkscape.org/namespaces/inkscape"
   version="1.1"
   id="Layer_1"
   x="0px"
   y="0px"
   viewBox="0 0 37 37"
   xml:space="preserve"
   width="74"
   height="74"
   sodipodi:docname="image.svg"
   inkscape:version="0.92.1 r15371"><metadata
     id="metadata4496"><rdf:RDF><cc:Work
         rdf:about=""><dc:format>image/svg+xml</dc:format><dc:type
           rdf:resource="http://purl.org/dc/dcmitype/StillImage" /><dc:title></dc:title></cc:Work></rdf:RDF></metadata><defs
     id="defs4494"><clipPath
       clipPathUnits="userSpaceOnUse"
       id="clipPath4157"><path
         d="M 27.642964,3.2951379 40.728548,16.380722 H 29.65613 c -0.977824,0 -2.013166,-1.035372 -2.013166,-2.013167 z"
         id="path4159"
         inkscape:connector-curvature="0"
         style="fill:#f9f8f2;fill-opacity:1;stroke-width:1.00658333" /></clipPath><clipPath
       id="clipPath4157-4"
       clipPathUnits="userSpaceOnUse"><path
         style="fill:#f9f8f2;fill-opacity:1;stroke-width:1.00658333"
         inkscape:connector-curvature="0"
         id="path4159-0"
         d="M 27.642964,3.2951379 40.728548,16.380722 H 29.65613 c -0.977824,0 -2.013166,-1.035372 -2.013166,-2.013167 z" /></clipPath><linearGradient
       id="id0"
       gradientUnits="userSpaceOnUse"
       x1="250.00301"
       y1="85.004997"
       x2="250.00301"
       y2="415.00601"><stop
         offset="0"
         style="stop-color:#CBCBCB"
         id="stop7888" /><stop
         offset="1"
         style="stop-color:#B1B1B1"
         id="stop7890" /></linearGradient><linearGradient
       id="id1"
       gradientUnits="userSpaceOnUse"
       x1="250.00301"
       y1="90.004997"
       x2="250.00301"
       y2="410.00601"><stop
         offset="0"
         style="stop-color:#F2F2F2"
         id="stop7893" /><stop
         offset="1"
         style="stop-color:#D8D8D8"
         id="stop7895" /></linearGradient><linearGradient
       id="id3"
       gradientUnits="userSpaceOnUse"
       x1="250.00301"
       y1="325.604"
       x2="250.00301"
       y2="174.40601"><stop
         offset="0"
         style="stop-color:#E8F6FF"
         id="stop7903" /><stop
         offset="1"
         style="stop-color:#74C7FF"
         id="stop7905" /></linearGradient><linearGradient
       id="id4"
       gradientUnits="userSpaceOnUse"
       x1="331.65302"
       y1="302.70401"
       x2="333.34698"
       y2="348.62"><stop
         offset="0"
         style="stop-color:#B6DB49"
         id="stop7908" /><stop
         offset="1"
         style="stop-color:#7CAF00"
         id="stop7910" /></linearGradient><linearGradient
       id="id2"
       gradientUnits="userSpaceOnUse"
       x1="250.00301"
       y1="281.05399"
       x2="250.00301"
       y2="383.95401"><stop
         offset="0"
         style="stop-color:#83C117"
         id="stop7898" /><stop
         offset="1"
         style="stop-color:#5E9300"
         id="stop7900" /></linearGradient></defs><sodipodi:namedview
     pagecolor="#ffffff"
     bordercolor="#666666"
     borderopacity="1"
     objecttolerance="10"
     gridtolerance="10"
     guidetolerance="10"
     inkscape:pageopacity="0"
     inkscape:pageshadow="2"
     inkscape:window-width="1366"
     inkscape:window-height="705"
     id="namedview4492"
     showgrid="false"
     inkscape:zoom="3.9480129"
     inkscape:cx="-9.9335789"
     inkscape:cy="8.4704796"
     inkscape:window-x="-8"
     inkscape:window-y="-8"
     inkscape:window-maximized="1"
     inkscape:current-layer="layer4" /><g
     inkscape:groupmode="layer"
     id="layer2"
     inkscape:label="Layer 2" /><g
     inkscape:groupmode="layer"
     id="layer4"
     inkscape:label="Layer 3"
     style="display:inline"><g
       style="clip-rule:evenodd;fill-rule:evenodd;image-rendering:optimizeQuality;shape-rendering:geometricPrecision;text-rendering:geometricPrecision"
       id="Layer_x0020_1"
       transform="matrix(0.07775352,0,0,0.07775352,-0.9674126,3.3656711)"><metadata
         id="CorelCorpID_0Corel-Layer" /><rect
         class="fil1"
         x="20"
         y="85"
         width="460"
         height="330"
         rx="10"
         ry="10"
         id="rect7916"
         style="fill:url(#id0)" /><rect
         class="fil2"
         x="25"
         y="90"
         width="450"
         height="320"
         rx="5"
         ry="5"
         id="rect7918"
         style="fill:url(#id1)" /><rect
         class="fil3"
         x="45"
         y="115"
         width="410"
         height="270"
         rx="5"
         ry="5"
         id="rect7920"
         style="fill:url(#id3)" /><circle
         class="fil4"
         transform="matrix(0.824989,0.824989,-0.824989,0.824989,380.001,185.003)"
         r="30"
         id="circle7922"
         cx="0"
         cy="0"
         style="fill:#ffb217" /><path
         class="fil5"
         d="m 210,385 h 240 c 3,0 5,-2 5,-5 v -75 c -113,-39 -148,9 -245,29 z"
         id="path7924"
         style="fill:url(#id4)"
         inkscape:connector-curvature="0" /><path
         class="fil6"
         d="m 455,335 v 45 c 0,3 -2,5 -5,5 H 50 c -3,0 -5,-2 -5,-5 v -45 c 160,-55 165,35 410,0 z"
         id="path7926"
         style="fill:url(#id2)"
         inkscape:connector-curvature="0" /><path
         class="fil7"
         d="m 149,275 c 4,0 7,2 7,6 v 44 c 0,3 -3,5 -7,5 -4,0 -8,-2 -8,-5 v -44 c 0,-4 4,-6 8,-6 z"
         id="path7928"
         inkscape:connector-curvature="0"
         style="fill:#975609" /><path
         class="fil8"
         d="m 119,170 c 8,0 15,4 19,10 4,-7 13,-12 22,-12 14,0 25,10 26,24 2,-1 4,-1 5,-1 11,0 19,9 19,19 0,2 0,3 0,5 0,0 1,0 1,0 11,0 19,8 19,19 0,1 0,1 0,2 12,4 20,15 20,27 0,16 -13,29 -29,29 -9,0 -17,-4 -22,-11 v 0 c 0,11 -9,19 -19,19 -8,0 -15,-5 -18,-12 -4,3 -9,5 -14,5 -10,0 -19,-6 -24,-13 -4,4 -11,8 -18,8 -12,0 -22,-11 -22,-23 0,-3 1,-6 2,-8 -10,-1 -17,-9 -17,-19 0,-10 9,-18 19,-18 v 0 c 0,-2 0,-3 0,-5 0,-7 4,-13 9,-16 0,-2 -1,-4 -1,-6 0,-13 11,-23 23,-23 z"
         id="path7930"
         inkscape:connector-curvature="0"
         style="fill:#77bb00" /></g></g><g
     inkscape:groupmode="layer"
     id="layer5"
     inkscape:label="Layer 4" /><g
     inkscape:groupmode="layer"
     id="layer6"
     inkscape:label="Layer 5" /></svg>