<?xml version="1.0" encoding="UTF-8" standalone="no"?>
<!-- Generator: Adobe Illustrator 22.1.0, SVG Export Plug-In . SVG Version: 6.00 Build 0)  -->

<svg
   xmlns:dc="http://purl.org/dc/elements/1.1/"
   xmlns:cc="http://creativecommons.org/ns#"
   xmlns:rdf="http://www.w3.org/1999/02/22-rdf-syntax-ns#"
   xmlns:svg="http://www.w3.org/2000/svg"
   xmlns="http://www.w3.org/2000/svg"
   xmlns:sodipodi="http://sodipodi.sourceforge.net/DTD/sodipodi-0.dtd"
   xmlns:inkscape="http://www.inkscape.org/namespaces/inkscape"
   version="1.1"
   id="Layer_1"
   x="0px"
   y="0px"
   viewBox="0 0 37 37"
   xml:space="preserve"
   width="74"
   height="74"
   sodipodi:docname="pdf.svg"
   inkscape:version="0.92.1 r15371"><metadata
     id="metadata4496"><rdf:RDF><cc:Work
         rdf:about=""><dc:format>image/svg+xml</dc:format><dc:type
           rdf:resource="http://purl.org/dc/dcmitype/StillImage" /><dc:title></dc:title></cc:Work></rdf:RDF></metadata><defs
     id="defs4494"><clipPath
       clipPathUnits="userSpaceOnUse"
       id="clipPath4157"><path
         d="M 27.642964,3.2951379 40.728548,16.380722 H 29.65613 c -0.977824,0 -2.013166,-1.035372 -2.013166,-2.013167 z"
         id="path4159"
         inkscape:connector-curvature="0"
         style="fill:#f9f8f2;fill-opacity:1;stroke-width:1.00658333" /></clipPath><clipPath
       id="clipPath4157-4"
       clipPathUnits="userSpaceOnUse"><path
         style="fill:#f9f8f2;fill-opacity:1;stroke-width:1.00658333"
         inkscape:connector-curvature="0"
         id="path4159-0"
         d="M 27.642964,3.2951379 40.728548,16.380722 H 29.65613 c -0.977824,0 -2.013166,-1.035372 -2.013166,-2.013167 z" /></clipPath><filter
       height="1.12"
       y="-0.059999999"
       width="1.12"
       x="-0.059999999"
       id="filter4201"
       style="color-interpolation-filters:sRGB"
       inkscape:collect="always"><feGaussianBlur
         id="feGaussianBlur4203"
         stdDeviation="0.2826087"
         inkscape:collect="always" /></filter></defs><sodipodi:namedview
     pagecolor="#ffffff"
     bordercolor="#666666"
     borderopacity="1"
     objecttolerance="10"
     gridtolerance="10"
     guidetolerance="10"
     inkscape:pageopacity="0"
     inkscape:pageshadow="2"
     inkscape:window-width="1366"
     inkscape:window-height="705"
     id="namedview4492"
     showgrid="false"
     inkscape:zoom="1.9740064"
     inkscape:cx="6.3754461"
     inkscape:cy="-28.491361"
     inkscape:window-x="-8"
     inkscape:window-y="-8"
     inkscape:window-maximized="1"
     inkscape:current-layer="layer4" /><g
     inkscape:groupmode="layer"
     id="layer2"
     inkscape:label="Layer 2" /><g
     inkscape:groupmode="layer"
     id="layer4"
     inkscape:label="Layer 3"
     style="display:inline"><g
       transform="matrix(0.77671359,0,0,0.77671359,3.2931257,-0.13642168)"
       id="g10"
       style="fill:#ffffff"><rect
         rx="0.579"
         ry="0.60100001"
         height="7"
         width="8"
         y="17"
         x="16"
         id="rect12"
         style="fill:#ffffff" /></g><path
       d="m 6.9935105,1.6072794 c -0.7668036,0 -1.4909631,0.7241611 -1.4909631,1.4909631 V 34.408476 c 0,0.724183 0.7668018,1.490963 1.4909631,1.490963 H 30.848926 c 0.724184,0 1.490964,-0.766802 1.490964,-1.490963 V 11.298542 L 22.648626,1.6072794 Z"
       id="path4-6"
       inkscape:connector-curvature="0"
       style="fill:#d41a1a;fill-opacity:1;stroke-width:0.74548173" /><path
       d="M 28.248139,4.2710929 39.552487,15.575441 h -9.565218 c -0.844721,0 -1.73913,-0.894435 -1.73913,-1.739131 z"
       id="path8-3"
       inkscape:connector-curvature="0"
       style="fill:#000000;fill-opacity:0.39200003;stroke-width:0.86956519;filter:url(#filter4201)"
       clip-path="url(#clipPath4157-4)"
       transform="matrix(0.85730401,0,0,0.85730401,-1.6540772,-1.8219367)" /><path
       d="m 22.648626,1.6072794 9.691264,9.6912626 h -8.2003 c -0.724181,0 -1.490964,-0.766803 -1.490964,-1.4909645 z"
       id="path8"
       inkscape:connector-curvature="0"
       style="fill:#e55a5a;fill-opacity:1;stroke-width:0.74548173" /><path
       d="m 15.853864,10.660079 c -0.877829,-0.01544 -1.63541,0.857741 -1.449821,1.73003 0.124925,1.332876 0.984355,2.414494 1.655025,3.515109 0.07544,0.409869 -0.140752,0.80885 -0.155223,1.215735 -0.43726,2.388861 -1.104336,4.764872 -2.130632,6.95692 -1.269908,0.584631 -2.708095,1.161965 -3.450726,2.421996 -0.4714142,0.874244 0.192353,2.054134 1.166705,2.14632 0.903932,0.123641 1.574876,-0.650985 2.069008,-1.300007 0.515917,-0.698129 0.855453,-1.529422 1.28473,-2.279699 2.597846,-1.046237 5.330965,-1.77744 8.1209,-2.055078 1.128084,0.807357 2.32326,1.759854 3.769832,1.817416 0.840834,-0.01252 1.521242,-0.828731 1.429125,-1.657735 -0.05418,-0.754796 -0.724713,-1.284113 -1.419387,-1.425739 -1.120367,-0.337496 -2.32055,-0.152652 -3.460198,-0.144474 -2.193123,-1.752414 -4.217706,-3.768676 -5.812463,-6.075638 0.11836,-1.40254 0.35603,-2.953943 -0.37429,-4.229876 -0.277304,-0.402428 -0.747364,-0.678377 -1.242655,-0.634954 m 0.04184,1.273765 c 0.246929,0.04758 0.263363,0.415415 0.332488,0.612097 0.06506,0.400867 0.05795,0.809929 0.05323,1.214783 -0.294072,-0.549661 -0.676079,-1.123883 -0.608034,-1.775408 0.0775,-0.0034 0.146153,-0.04235 0.222315,-0.05135 m 1.360807,5.469625 c 1.307115,1.625259 2.759028,3.12202 4.343506,4.47877 -2.089302,0.318626 -4.164946,0.852401 -6.152735,1.572512 0.762384,-1.992521 1.342822,-4.051053 1.725291,-6.152058 0.02787,0.0336 0.05573,0.06713 0.08358,0.100789 m 8.153367,5.46354 c 0.506795,0.04887 1.091631,0.01955 1.497436,0.368812 0.03807,0.315238 -0.347577,0.361234 -0.55291,0.247136 -0.428472,-0.143051 -0.852332,-0.322888 -1.216077,-0.59695 0.09063,-0.006 0.180925,-0.01723 0.271894,-0.01903 m -12.664605,3.315446 c -0.240979,0.448216 -0.591805,0.8708 -0.957642,1.188206 -0.121737,0.197096 -0.455854,-0.167328 -0.302122,-0.321265 0.317407,-0.496843 0.871604,-0.760213 1.362162,-1.056995 -0.03421,0.06335 -0.06833,0.126744 -0.102605,0.190124"
       inkscape:connector-curvature="0"
       id="path70"
       style="fill:#ffffff;stroke-width:0.05127433" /></g><g
     inkscape:groupmode="layer"
     id="layer5"
     inkscape:label="Layer 4" /><g
     inkscape:groupmode="layer"
     id="layer6"
     inkscape:label="Layer 5" /></svg>