<?xml version="1.0" encoding="UTF-8" standalone="no"?>
<!-- Generator: Adobe Illustrator 22.1.0, SVG Export Plug-In . SVG Version: 6.00 Build 0)  -->

<svg
   xmlns:osb="http://www.openswatchbook.org/uri/2009/osb"
   xmlns:dc="http://purl.org/dc/elements/1.1/"
   xmlns:cc="http://creativecommons.org/ns#"
   xmlns:rdf="http://www.w3.org/1999/02/22-rdf-syntax-ns#"
   xmlns:svg="http://www.w3.org/2000/svg"
   xmlns="http://www.w3.org/2000/svg"
   xmlns:xlink="http://www.w3.org/1999/xlink"
   xmlns:sodipodi="http://sodipodi.sourceforge.net/DTD/sodipodi-0.dtd"
   xmlns:inkscape="http://www.inkscape.org/namespaces/inkscape"
   version="1.1"
   id="Layer_1"
   x="0px"
   y="0px"
   viewBox="0 0 37 37"
   xml:space="preserve"
   width="74"
   height="74"
   sodipodi:docname="rar.svg"
   inkscape:version="0.92.1 r15371"><metadata
     id="metadata4496"><rdf:RDF><cc:Work
         rdf:about=""><dc:format>image/svg+xml</dc:format><dc:type
           rdf:resource="http://purl.org/dc/dcmitype/StillImage" /><dc:title></dc:title></cc:Work></rdf:RDF></metadata><defs
     id="defs4494"><linearGradient
       inkscape:collect="always"
       id="linearGradient5653"><stop
         style="stop-color:#7f7f7f;stop-opacity:1"
         offset="0"
         id="stop5649" /><stop
         style="stop-color:#c6c6c6;stop-opacity:1"
         offset="1"
         id="stop5651" /></linearGradient><linearGradient
       inkscape:collect="always"
       id="linearGradient5210"><stop
         style="stop-color:#af638d;stop-opacity:1"
         offset="0"
         id="stop5206" /><stop
         style="stop-color:#af418d;stop-opacity:1"
         offset="1"
         id="stop5208" /></linearGradient><linearGradient
       inkscape:collect="always"
       id="linearGradient5202"><stop
         style="stop-color:#5279d4;stop-opacity:1"
         offset="0"
         id="stop5198" /><stop
         style="stop-color:#5242d4;stop-opacity:0.94444442"
         offset="1"
         id="stop5200" /></linearGradient><linearGradient
       inkscape:collect="always"
       id="linearGradient5118"><stop
         style="stop-color:#86d85b;stop-opacity:1"
         offset="0"
         id="stop5114" /><stop
         style="stop-color:#5ac339;stop-opacity:1"
         offset="1"
         id="stop5116" /></linearGradient><marker
       inkscape:stockid="Arrow1Lstart"
       orient="auto"
       refY="0.0"
       refX="0.0"
       id="Arrow1Lstart"
       style="overflow:visible"
       inkscape:isstock="true"><path
         id="path4637"
         d="M 0.0,0.0 L 5.0,-5.0 L -12.5,0.0 L 5.0,5.0 L 0.0,0.0 z "
         style="fill-rule:evenodd;stroke:#5ac439;stroke-width:1pt;stroke-opacity:1;fill:#cccccc;fill-opacity:1"
         transform="scale(0.8) translate(12.5,0)" /></marker><linearGradient
       id="linearGradient4633"
       osb:paint="solid"><stop
         style="stop-color:#5ac439;stop-opacity:1;"
         offset="0"
         id="stop4631" /></linearGradient><linearGradient
       inkscape:collect="always"
       xlink:href="#linearGradient5118"
       id="linearGradient5120"
       x1="15.733126"
       y1="36.346565"
       x2="33.410797"
       y2="49.074486"
       gradientUnits="userSpaceOnUse"
       gradientTransform="matrix(0.62122674,-0.07952642,0.0758962,0.65094082,-7.1845309,1.4125159)" /><linearGradient
       inkscape:collect="always"
       xlink:href="#linearGradient5202"
       id="linearGradient5204"
       x1="7.5130095"
       y1="14.991302"
       x2="16.970562"
       y2="22.769476"
       gradientUnits="userSpaceOnUse"
       gradientTransform="matrix(1.2516915,0,0,1.2516915,-2.9012676,-0.2178045)" /><linearGradient
       inkscape:collect="always"
       xlink:href="#linearGradient5210"
       id="linearGradient5212"
       x1="7.3362327"
       y1="10.483496"
       x2="17.589281"
       y2="18.880388"
       gradientUnits="userSpaceOnUse"
       gradientTransform="matrix(1.2516915,0,0,1.2516915,-2.9012676,-0.2178045)" /><linearGradient
       gradientTransform="matrix(1.02288,0,0,0.6213443,4.963554,-19.970191)"
       inkscape:collect="always"
       xlink:href="#linearGradient5653"
       id="linearGradient5655-8"
       x1="14.202999"
       y1="13.308238"
       x2="14.202999"
       y2="12.933238"
       gradientUnits="userSpaceOnUse" /><linearGradient
       inkscape:collect="always"
       xlink:href="#linearGradient5653"
       id="linearGradient5655"
       x1="14.202999"
       y1="13.308238"
       x2="14.202999"
       y2="12.933238"
       gradientUnits="userSpaceOnUse"
       gradientTransform="matrix(1.0690629,0,1.027742e-8,1.298179,2.6126165,-4.3363514)" /><linearGradient
       inkscape:collect="always"
       xlink:href="#linearGradient5653"
       id="linearGradient5655-82"
       x1="14.202999"
       y1="13.308238"
       x2="14.202999"
       y2="12.933238"
       gradientUnits="userSpaceOnUse"
       gradientTransform="matrix(0.9913601,0,0,0.75588569,4.983627,-0.08292623)" /><linearGradient
       gradientTransform="matrix(0.81610812,0,0,0.55080247,5.212355,7.3589116)"
       inkscape:collect="always"
       xlink:href="#linearGradient5653"
       id="linearGradient5655-8-1-1"
       x1="14.202999"
       y1="13.308238"
       x2="14.202999"
       y2="12.933238"
       gradientUnits="userSpaceOnUse" /><linearGradient
       gradientTransform="matrix(0.44452651,0,0,0.53778507,11.12277,5.7707805)"
       inkscape:collect="always"
       xlink:href="#linearGradient5653"
       id="linearGradient5655-8-1-1-5"
       x1="14.202999"
       y1="13.308238"
       x2="14.202999"
       y2="12.933238"
       gradientUnits="userSpaceOnUse" /></defs><sodipodi:namedview
     pagecolor="#ffffff"
     bordercolor="#666666"
     borderopacity="1"
     objecttolerance="10"
     gridtolerance="10"
     guidetolerance="10"
     inkscape:pageopacity="0"
     inkscape:pageshadow="2"
     inkscape:window-width="1366"
     inkscape:window-height="705"
     id="namedview4492"
     showgrid="false"
     inkscape:zoom="4"
     inkscape:cx="70.10733"
     inkscape:cy="39.114761"
     inkscape:window-x="-8"
     inkscape:window-y="-8"
     inkscape:window-maximized="1"
     inkscape:current-layer="layer1"
     showguides="true" /><g
     inkscape:groupmode="layer"
     id="layer4"
     inkscape:label="Layer 4"><circle
       style="fill:#5279d4;fill-opacity:1;stroke:none;stroke-width:0.31292287;stroke-linecap:butt;stroke-linejoin:bevel;stroke-miterlimit:4;stroke-dasharray:none;stroke-opacity:1;paint-order:stroke markers fill"
       id="path5215"
       cx="3.4878993"
       cy="15.849955"
       r="0.51168662" /><circle
       style="fill:#86d85b;fill-opacity:1;stroke:none;stroke-width:0.31292287;stroke-linecap:butt;stroke-linejoin:bevel;stroke-miterlimit:4;stroke-dasharray:none;stroke-opacity:1;paint-order:stroke markers fill"
       id="path5262"
       cx="3.902782"
       cy="20.95299"
       r="0.96805573" /></g><g
     inkscape:groupmode="layer"
     id="layer2"
     inkscape:label="Layer 2"
     style="display:inline"><path
       style="fill:url(#linearGradient5120);fill-opacity:1;stroke:none;stroke-width:0.67504168;stroke-linecap:butt;stroke-linejoin:bevel;stroke-miterlimit:4;stroke-dasharray:none;stroke-opacity:1;paint-order:stroke markers fill"
       d="m 3.340695,20.360967 c -0.4112983,-0.0368 -0.6316299,0.687379 -0.5037095,1.784513 l 0.1071699,0.919199 c 0.1461937,1.253863 0.6908911,2.505313 1.2198646,2.805181 l 6.048361,3.428372 c 0.0019,0.001 0.0037,0.0034 0.0056,0.0045 l 11.433496,6.480994 0.159381,-0.06944 c -0.07761,-0.237056 -0.144089,-0.507055 -0.182444,-0.836014 l -0.10702,-0.917928 c -0.146194,-1.253861 0.09267,-2.604332 0.537189,-3.02882 l -6.0539,-3.432871 -6.4216788,-3.641233 -6.053807,-3.432835 c -0.066127,-0.03749 -0.1296877,-0.05837 -0.1884397,-0.06362 z"
       id="rect4522-9"
       inkscape:connector-curvature="0" /><path
       style="fill:url(#linearGradient5204);fill-opacity:1;stroke:none;stroke-width:0.67504168;stroke-linecap:butt;stroke-linejoin:bevel;stroke-miterlimit:4;stroke-dasharray:none;stroke-opacity:1;paint-order:stroke markers fill"
       d="m 3.3582863,15.436463 c -0.4112971,-0.0368 -0.6316286,0.687378 -0.5037095,1.784512 l 0.1071698,0.919199 c 0.1461938,1.253863 0.6908911,2.505314 1.2198659,2.805181 l 6.0483615,3.428371 c 0.0019,10e-4 0.0037,0.0034 0.0056,0.0045 l 11.433496,6.480994 0.159381,-0.06943 c -0.07761,-0.237056 -0.144089,-0.507055 -0.182445,-0.836014 l -0.10702,-0.917927 c -0.146193,-1.253862 0.09267,-2.604333 0.537189,-3.028821 l -6.0539,-3.432881 -6.4216782,-3.641231 -6.0538083,-3.432835 c -0.066127,-0.03749 -0.1296878,-0.05837 -0.1884397,-0.06362 z"
       id="rect4522-9-8"
       inkscape:connector-curvature="0" /><path
       style="fill:url(#linearGradient5212);fill-opacity:1;stroke:none;stroke-width:0.67504168;stroke-linecap:butt;stroke-linejoin:bevel;stroke-miterlimit:4;stroke-dasharray:none;stroke-opacity:1;paint-order:stroke markers fill"
       d="m 3.3582875,10.472447 c -0.4112983,-0.0368 -0.6316298,0.68738 -0.5037094,1.784517 l 0.1071698,0.9192 c 0.1461938,1.253863 0.6908911,2.505313 1.2198646,2.80518 l 6.0483615,3.428371 c 0.0019,0.001 0.0037,0.0034 0.0056,0.0045 l 11.433496,6.480994 0.159381,-0.06943 c -0.07761,-0.237058 -0.144089,-0.507057 -0.182445,-0.836016 l -0.10702,-0.917928 c -0.146193,-1.253861 0.09267,-2.60433 0.537189,-3.028819 l -6.053853,-3.43288 -6.421677,-3.64123 -6.0538082,-3.43284 c -0.066127,-0.03749 -0.1296878,-0.05837 -0.1884397,-0.06362 z"
       id="rect4522-9-8-7"
       inkscape:connector-curvature="0" /><rect
       style="fill:#d4aa00;fill-opacity:1;stroke:#806600;stroke-width:1.61235166;stroke-linecap:butt;stroke-linejoin:bevel;stroke-miterlimit:4;stroke-dasharray:none;stroke-opacity:1;paint-order:stroke markers fill"
       id="rect5599"
       width="1.7217346"
       height="3.1601105"
       x="25.656586"
       y="-0.74179906"
       ry="0.63449776"
       transform="matrix(0.94367147,0.33088391,0.55363362,0.83276036,0,0)" /></g><g
     inkscape:groupmode="layer"
     id="layer1"
     inkscape:label="Layer 1"
     style="display:inline"><path
       style="fill:#e6e6e6;fill-opacity:1;stroke:none;stroke-width:0.62584573;stroke-linecap:butt;stroke-linejoin:bevel;stroke-miterlimit:4;stroke-dasharray:none;stroke-opacity:1;paint-order:stroke markers fill"
       d="m 22.156282,30.814772 c -0.468578,0.32821 -0.845489,1.507155 -0.845489,2.643417 v 0.832413 c 0,1.136263 0.376911,1.78656 0.845489,1.458352 l 11.052231,-7.741365 v -4.934184 z"
       id="rect4522"
       inkscape:connector-curvature="0" /><path
       style="fill:#e6e6e6;fill-opacity:1;stroke:none;stroke-width:0.01214495;stroke-miterlimit:4;stroke-dasharray:none;stroke-opacity:1"
       d="m 22.156282,25.880591 c -0.468578,0.328208 -0.845489,1.507156 -0.845489,2.643417 v 0.832413 c 0,1.136262 0.376911,1.786561 0.845489,1.458351 l 11.052231,-7.741367 v -4.93418 z"
       id="rect4522-4"
       inkscape:connector-curvature="0" /><path
       style="fill:#e6e6e6;fill-opacity:1;stroke:none;stroke-width:0.01214495;stroke-miterlimit:4;stroke-dasharray:none;stroke-opacity:1"
       d="m 22.156282,20.946409 c -0.468578,0.328209 -0.845489,1.507157 -0.845489,2.643419 v 0.832414 c 0,1.136261 0.376911,1.786557 0.845489,1.458349 l 11.052231,-7.741366 v -4.934181 z"
       id="rect4522-4-7"
       inkscape:connector-curvature="0" /><path
       style="fill:none;stroke:#5ac339;stroke-width:0.31292287;stroke-linecap:butt;stroke-linejoin:miter;stroke-miterlimit:4;stroke-dasharray:none;stroke-opacity:1"
       d="m 33.525557,27.730176 c 0,0 -4.91829,3.254682 -11.380395,7.862541 -0.733416,0.522968 -0.746577,-1.009703 -0.819643,-2.337239 -0.07306,-1.327537 1.024378,-2.744952 1.024378,-2.744952"
       id="path4916"
       inkscape:connector-curvature="0"
       sodipodi:nodetypes="cszc" /><path
       style="fill:#5ac339;fill-opacity:1;stroke:none;stroke-width:0.52144915;stroke-linecap:butt;stroke-linejoin:bevel;stroke-miterlimit:4;stroke-dasharray:none;stroke-opacity:1;paint-order:stroke markers fill"
       d="m 33.207098,27.17517 v 0.860538 l 0.05255,0.05011 0.542726,-0.348371 z"
       id="rect4920"
       inkscape:connector-curvature="0" /><path
       style="fill:none;stroke:#5242d4;stroke-width:0.31292287;stroke-linecap:butt;stroke-linejoin:miter;stroke-miterlimit:4;stroke-dasharray:none;stroke-opacity:1"
       d="m 33.525553,22.795995 c 0,0 -4.91829,3.254682 -11.380395,7.86254 -0.733416,0.522968 -0.746576,-1.009702 -0.819642,-2.337239 -0.07306,-1.327535 0.750569,-2.577033 0.750569,-2.577033"
       id="path4916-6"
       inkscape:connector-curvature="0"
       sodipodi:nodetypes="cszc" /><path
       inkscape:connector-curvature="0"
       style="fill:#5242d4;fill-opacity:1;stroke:none;stroke-width:0.52144915;stroke-linecap:butt;stroke-linejoin:bevel;stroke-miterlimit:4;stroke-dasharray:none;stroke-opacity:1;paint-order:stroke markers fill"
       d="m 33.207094,22.240988 v 0.860538 l 0.05256,0.05011 0.542726,-0.34837 z"
       id="rect4920-4" /><path
       style="fill:none;stroke:#af418d;stroke-width:0.31292287;stroke-linecap:butt;stroke-linejoin:miter;stroke-miterlimit:4;stroke-dasharray:none;stroke-opacity:1"
       d="m 33.526972,17.833695 c 0,0 -4.918289,3.254682 -11.380395,7.862539 -0.733416,0.522968 -0.746576,-1.009701 -0.819643,-2.337238 -0.07306,-1.327536 0.772094,-2.763407 0.772094,-2.763407"
       id="path4916-4"
       inkscape:connector-curvature="0"
       sodipodi:nodetypes="cszc" /><path
       inkscape:connector-curvature="0"
       style="fill:#af418d;fill-opacity:1;stroke:none;stroke-width:0.52144915;stroke-linecap:butt;stroke-linejoin:bevel;stroke-miterlimit:4;stroke-dasharray:none;stroke-opacity:1;paint-order:stroke markers fill"
       d="m 33.208513,17.278687 v 0.860538 l 0.05256,0.05011 0.542725,-0.348371 z"
       id="rect4920-2" /><path
       style="display:inline;fill:none;stroke:#287d0a;stroke-width:0.18775374;stroke-linecap:butt;stroke-linejoin:miter;stroke-miterlimit:4;stroke-dasharray:none;stroke-opacity:1"
       d="M 33.700813,27.687906 22.069908,35.919656 4.505096,26.025334 c 0,0 -1.2945019,-0.539598 -1.6320392,-3.219563 -0.1857447,-1.964333 0.285442,-2.383367 0.285442,-2.365386 l 0.3608325,-0.304528"
       id="path5264-0-3"
       inkscape:connector-curvature="0"
       sodipodi:nodetypes="ccsccc" /><path
       style="display:inline;fill:none;stroke:#287d0a;stroke-width:0.18775374;stroke-linecap:butt;stroke-linejoin:miter;stroke-miterlimit:4;stroke-dasharray:none;stroke-opacity:1"
       d="m 22.261883,30.843921 c -0.476147,0.730094 -0.733577,1.57947 -0.768297,2.332202 -0.04142,0.898035 0.0442,1.831168 0.582499,2.758932"
       id="path5270-5-8"
       inkscape:connector-curvature="0"
       sodipodi:nodetypes="csc" /></g><g
     inkscape:groupmode="layer"
     id="layer3"
     inkscape:label="Layer 3"
     style="display:inline"><path
       style="fill:#af418d;fill-opacity:1;stroke:none;stroke-width:0.62584573px;stroke-linecap:butt;stroke-linejoin:miter;stroke-opacity:1"
       d="M 21.821836,21.219039 33.761688,13.09441 14.778874,3.0678854 3.1647434,10.527758 Z"
       id="path5181"
       inkscape:connector-curvature="0"
       sodipodi:nodetypes="ccccc" /><path
       style="fill:none;stroke:#901d50;stroke-width:0.18775374;stroke-linecap:butt;stroke-linejoin:miter;stroke-miterlimit:4;stroke-dasharray:none;stroke-opacity:1"
       d="M 3.1647434,10.527758 22.076085,21.04302 33.581906,13.08058"
       id="path5268"
       inkscape:connector-curvature="0"
       sodipodi:nodetypes="ccc" /><path
       style="fill:none;stroke:#901d50;stroke-width:0.18775374;stroke-linecap:butt;stroke-linejoin:miter;stroke-miterlimit:4;stroke-dasharray:none;stroke-opacity:1"
       d="m 22.076085,21.04302 c -0.476147,0.730094 -0.547779,1.452348 -0.582499,2.205078 -0.04142,0.898035 0.0442,1.83117 0.582499,2.758934"
       id="path5270"
       inkscape:connector-curvature="0"
       sodipodi:nodetypes="csc" /><path
       style="fill:none;stroke:#0f2f50;stroke-width:0.18775374;stroke-linecap:butt;stroke-linejoin:miter;stroke-miterlimit:4;stroke-dasharray:none;stroke-opacity:1"
       d="m 22.076085,26.007032 c -0.476147,0.730094 -0.547779,1.452348 -0.582499,2.205078 -0.04142,0.898035 0.0442,1.83117 0.582499,2.758934"
       id="path5270-5"
       inkscape:connector-curvature="0"
       sodipodi:nodetypes="csc" /><path
       style="fill:none;stroke:#0f2f50;stroke-width:0.18775374;stroke-linecap:butt;stroke-linejoin:miter;stroke-miterlimit:4;stroke-dasharray:none;stroke-opacity:1"
       d="M 33.706992,22.739295 22.076085,30.971044 4.5112743,21.076723 c 0,0 -1.2945031,-0.539597 -1.6320392,-3.219563 -0.1857447,-1.964333 0.285442,-2.383367 0.285442,-2.365385 l 0.4576384,-0.221552"
       id="path5264-0"
       inkscape:connector-curvature="0"
       sodipodi:nodetypes="ccsccc" /><path
       style="fill:none;stroke:#901d50;stroke-width:0.18775374;stroke-linecap:butt;stroke-linejoin:miter;stroke-miterlimit:4;stroke-dasharray:none;stroke-opacity:1"
       d="M 33.722024,17.787646 22.091119,26.019395 4.5263072,16.125074 c 0,0 -1.2944368,-0.539603 -1.6319729,-3.219568 -0.1857447,-1.964333 0.285442,-2.383367 0.285442,-2.365386 L 14.849225,3.1424799"
       id="path5264"
       inkscape:connector-curvature="0"
       sodipodi:nodetypes="ccsccc" /></g><g
     inkscape:groupmode="layer"
     id="layer5"
     inkscape:label="Layer 5" /><g
     inkscape:groupmode="layer"
     id="layer6"
     inkscape:label="Layer 6"><path
       style="display:inline;fill:#ffcc00;fill-opacity:1;stroke:#901d50;stroke-width:0.12516914;stroke-linecap:round;stroke-linejoin:round;stroke-miterlimit:4;stroke-dasharray:none;stroke-opacity:1;paint-order:stroke markers fill"
       d="m 28.754059,14.080082 -0.317812,0.242026 -0.08068,0.06235 -0.04034,0.03055 -0.233472,0.178463 v -0.0013 l -0.320255,0.228582 -0.0819,0.05866 -0.04155,0.02811 -0.277474,0.198021 -0.34226,0.202911 -0.08557,0.05501 -0.04278,0.0269 -0.245693,0.156461 h -0.0013 l -0.338592,0.201689 -0.08557,0.05133 -0.04278,0.02444 -0.332481,0.198023 -0.344704,0.191909 -0.107571,0.05989 -0.268916,0.150351 h -0.0013 l -0.01344,0.0085 -0.06722,0.03789 h 0.0025 l -0.264028,0.157685 -0.106344,0.06233 v 0.0013 l -0.293365,0.174796 -0.05378,0.033 0.0025,0.0013 -0.276252,0.183353 -0.101454,0.06846 -0.255471,0.17113 h -0.0013 l -0.01227,0.0085 -0.06356,0.04278 0.0025,0.0013 -0.250584,0.178464 -0.101454,0.07089 0.0013,0.0013 -0.330037,0.235915 0.89232,0.440047 0.317812,-0.242026 0.08068,-0.06235 0.04034,-0.03055 0.233469,-0.177242 h 0.0013 l 0.320257,-0.228581 0.08189,-0.05866 0.04034,-0.02811 0.277475,-0.198022 0.342258,-0.20291 0.08557,-0.055 0.04278,-0.0269 0.246917,-0.156461 h 0.0013 l 0.337369,-0.201688 0.0868,-0.05133 0.04278,-0.02444 0.332481,-0.198023 0.344703,-0.191909 0.106344,-0.05989 0.27014,-0.150351 0.01344,-0.0073 0.06722,-0.03789 -0.0025,-0.0013 0.26403,-0.157684 0.10757,-0.06233 -0.0013,-0.0013 0.294587,-0.174796 0.05378,-0.033 -0.0037,-0.0013 0.276254,-0.183353 0.101443,-0.06845 0.255473,-0.169907 h 0.0013 l 0.01227,-0.0097 0.06478,-0.04278 -0.0025,-0.0013 0.249359,-0.178463 0.101454,-0.07089 0.330036,-0.235914 z"
       id="path5181-0"
       inkscape:connector-curvature="0" /><path
       style="fill:none;stroke:#ffcc00;stroke-width:0.37550747;stroke-linecap:butt;stroke-linejoin:miter;stroke-miterlimit:4;stroke-dasharray:none;stroke-opacity:1"
       d="m 20.763524,21.334758 c 0,0 -0.248533,1.133962 -0.265627,1.710811 -0.0165,0.556552 0.158089,1.662888 0.158089,1.662888"
       id="path5539"
       inkscape:connector-curvature="0"
       sodipodi:nodetypes="cac" /><path
       style="fill:none;stroke:#ffcc00;stroke-width:0.37550747;stroke-linecap:butt;stroke-linejoin:miter;stroke-miterlimit:4;stroke-dasharray:none;stroke-opacity:1"
       d="m 19.882104,20.768161 c 0,0 -0.248532,1.133961 -0.265628,1.710812 -0.01649,0.556551 0.15809,1.662888 0.15809,1.662888"
       id="path5539-4"
       inkscape:connector-curvature="0"
       sodipodi:nodetypes="cac" /><path
       style="fill:none;stroke:#ffcc00;stroke-width:0.37550747;stroke-linecap:butt;stroke-linejoin:miter;stroke-miterlimit:4;stroke-dasharray:none;stroke-opacity:1"
       d="m 20.518392,26.077784 c 0,0 -0.248533,1.133961 -0.265628,1.710812 -0.0165,0.556551 0.158089,1.662887 0.158089,1.662887"
       id="path5539-2"
       inkscape:connector-curvature="0"
       sodipodi:nodetypes="cac" /><path
       style="fill:none;stroke:#ffcc00;stroke-width:0.37550747;stroke-linecap:butt;stroke-linejoin:miter;stroke-miterlimit:4;stroke-dasharray:none;stroke-opacity:1"
       d="m 19.636973,25.511187 c 0,0 -0.248534,1.133961 -0.265628,1.710811 -0.0165,0.556552 0.158088,1.662888 0.158088,1.662888"
       id="path5539-4-7"
       inkscape:connector-curvature="0"
       sodipodi:nodetypes="cac" /><path
       style="fill:none;stroke:#ffcc00;stroke-width:0.37550747;stroke-linecap:butt;stroke-linejoin:miter;stroke-miterlimit:4;stroke-dasharray:none;stroke-opacity:1"
       d="m 20.283699,30.888973 c 0,0 -0.248532,1.133961 -0.265626,1.710812 -0.0165,0.556551 0.158088,1.662887 0.158088,1.662887"
       id="path5539-2-5"
       inkscape:connector-curvature="0"
       sodipodi:nodetypes="cac" /><path
       style="fill:none;stroke:#ffcc00;stroke-width:0.37550747;stroke-linecap:butt;stroke-linejoin:miter;stroke-miterlimit:4;stroke-dasharray:none;stroke-opacity:1"
       d="m 19.40228,30.322375 c 0,0 -0.248533,1.133962 -0.265628,1.710812 -0.01649,0.556551 0.158089,1.662888 0.158089,1.662888"
       id="path5539-4-7-4"
       inkscape:connector-curvature="0"
       sodipodi:nodetypes="cac" /></g><g
     inkscape:groupmode="layer"
     id="layer7"
     inkscape:label="Layer 7"><path
       style="fill:#d4aa00;fill-opacity:1;stroke:#806600;stroke-width:0.31292287;stroke-linecap:butt;stroke-linejoin:miter;stroke-miterlimit:4;stroke-dasharray:none;stroke-opacity:1"
       d="M 14.302465,16.665885 25.863818,8.9214405 23.319213,7.5385029 11.702545,15.227631 v 14.8804 l 2.59992,1.438254 z"
       id="path5593"
       inkscape:connector-curvature="0" /><path
       style="fill:none;stroke:#806600;stroke-width:0.62584573px;stroke-linecap:butt;stroke-linejoin:miter;stroke-opacity:1"
       d="m 11.702545,15.227631 2.59992,1.438254"
       id="path5595"
       inkscape:connector-curvature="0" /><rect
       style="fill:url(#linearGradient5655-8);fill-opacity:1;stroke:none;stroke-width:1.41342402;stroke-linecap:butt;stroke-linejoin:bevel;stroke-miterlimit:4;stroke-dasharray:none;stroke-opacity:1;paint-order:stroke markers fill"
       id="rect5639-3"
       width="3.3017793"
       height="0.45733851"
       x="17.965483"
       y="-12.070739"
       ry="0.22866926"
       rx="0.4351182"
       transform="matrix(-0.00811014,0.99996711,-1,0,0,0)" /><rect
       style="fill:url(#linearGradient5655-8-1-1);fill-opacity:1;stroke:none;stroke-width:1.1886822;stroke-linecap:butt;stroke-linejoin:bevel;stroke-miterlimit:4;stroke-dasharray:none;stroke-opacity:1;paint-order:stroke markers fill"
       id="rect5639-3-5-1"
       width="2.6343353"
       height="0.40541643"
       x="15.586027"
       y="14.361453"
       ry="0.20270821"
       rx="0.3471604"
       transform="matrix(0.00870658,0.9999621,0.96622603,0.25769607,0,0)" /></g><g
     inkscape:groupmode="layer"
     id="layer9"
     inkscape:label="Layer 8"><rect
       style="fill:url(#linearGradient5655);fill-opacity:1;stroke:none;stroke-width:2.0886364;stroke-linecap:butt;stroke-linejoin:bevel;stroke-miterlimit:4;stroke-dasharray:none;stroke-opacity:1;paint-order:stroke markers fill"
       id="rect5639"
       width="3.4508541"
       height="0.95552057"
       x="16.201571"
       y="12.167981"
       ry="0.47776029"
       rx="0.45476371"
       transform="matrix(0.85991922,0.51043015,-0.19474452,0.980854,0,0)" /><rect
       style="fill:url(#linearGradient5655-82);fill-opacity:1;stroke:none;stroke-width:1.5347501;stroke-linecap:butt;stroke-linejoin:bevel;stroke-miterlimit:4;stroke-dasharray:none;stroke-opacity:1;paint-order:stroke markers fill"
       id="rect5639-9"
       width="3.2000351"
       height="0.55636722"
       x="17.584976"
       y="9.5269852"
       ry="0.27818361"
       rx="0.42171004"
       transform="matrix(0.86169062,0.50743401,-0.36408171,0.93136701,0,0)" /><ellipse
       style="fill:#806600;fill-opacity:1;stroke:none;stroke-width:0.11020555;stroke-linecap:butt;stroke-linejoin:bevel;stroke-miterlimit:4;stroke-dasharray:none;stroke-opacity:1;paint-order:stroke markers fill"
       id="path5864"
       cx="13.014822"
       cy="18.660921"
       rx="0.29482836"
       ry="0.2738075"
       transform="matrix(0.99503719,0.09950369,0,1,0,0)" /></g><g
     inkscape:groupmode="layer"
     id="layer10"
     inkscape:label="Layer 9"
     style="display:inline"><rect
       style="fill:url(#linearGradient5655-8-1-1-5);fill-opacity:1;stroke:#c6c6c6;stroke-width:0.06298932;stroke-linecap:butt;stroke-linejoin:bevel;stroke-miterlimit:4;stroke-dasharray:none;stroke-opacity:1;paint-order:stroke markers fill"
       id="rect5639-3-5-1-7"
       width="1.4348979"
       height="0.39583501"
       x="16.773212"
       y="12.607857"
       ry="0.19791751"
       rx="0.18909506"
       transform="matrix(0.01598445,0.99987224,0.98961413,0.14374935,0,0)" /><path
       style="fill:#d4aa00;fill-opacity:1;stroke:#806600;stroke-width:0.31292287;stroke-linecap:butt;stroke-linejoin:miter;stroke-miterlimit:4;stroke-dasharray:none;stroke-opacity:1"
       d="m 11.808886,22.854311 c 0,0 -0.0886,1.384263 -0.425796,2.369413 -0.334442,0.977082 -0.471781,1.124568 -1.222022,2.311913 -0.35491,0.561687 1.349418,1.169788 1.840108,0.766211 0.975992,-0.802723 1.234599,-1.024383 1.722302,-1.833003 0.487703,-0.808621 0.485444,-2.179535 0.485444,-2.179535 z"
       id="path5593-8"
       inkscape:connector-curvature="0"
       sodipodi:nodetypes="cssszcc" /><path
       style="fill:#d4aa00;fill-opacity:1;stroke:none;stroke-width:0.04294972;stroke-linecap:butt;stroke-linejoin:bevel;stroke-miterlimit:4;stroke-dasharray:none;stroke-opacity:1;paint-order:stroke markers fill"
       d="m 11.995572,22.711142 c -0.0215,0.01664 -0.036,0.04823 -0.03911,0.09168 l -0.03789,0.523169 c -0.0063,0.08689 0.03689,0.18658 0.09657,0.222468 l 1.734523,1.042669 c 0.0014,8.29e-4 0.0023,-7.46e-4 0.0037,0 l 0.18091,0.108785 c 0.05968,0.03589 0.112326,-0.0047 0.118572,-0.09167 l 0.03789,-0.523169 c 0.0063,-0.08689 -0.03689,-0.186582 -0.09657,-0.222467 l -1.734521,-1.04267 c -0.0014,-8.28e-4 -0.0023,7.46e-4 -0.0037,0 l -0.180911,-0.108794 c -0.02984,-0.01794 -0.05794,-0.01664 -0.07945,0 z"
       id="rect5890-8"
       inkscape:connector-curvature="0" /><rect
       style="fill:#554400;fill-opacity:1;stroke:none;stroke-width:0.05586683;stroke-linecap:butt;stroke-linejoin:bevel;stroke-miterlimit:4;stroke-dasharray:none;stroke-opacity:1;paint-order:stroke markers fill"
       id="rect5890"
       width="3.4414237"
       height="0.83695453"
       x="13.449781"
       y="14.971123"
       rx="0.19013524"
       ry="0.15684651"
       transform="matrix(0.85813602,0.51342241,0,1,0,0)" /></g></svg>