<?xml version="1.0" encoding="UTF-8" standalone="no"?>
<!-- Generator: Adobe Illustrator 22.1.0, SVG Export Plug-In . SVG Version: 6.00 Build 0)  -->

<svg
   xmlns:dc="http://purl.org/dc/elements/1.1/"
   xmlns:cc="http://creativecommons.org/ns#"
   xmlns:rdf="http://www.w3.org/1999/02/22-rdf-syntax-ns#"
   xmlns:svg="http://www.w3.org/2000/svg"
   xmlns="http://www.w3.org/2000/svg"
   xmlns:sodipodi="http://sodipodi.sourceforge.net/DTD/sodipodi-0.dtd"
   xmlns:inkscape="http://www.inkscape.org/namespaces/inkscape"
   version="1.1"
   id="Layer_1"
   x="0px"
   y="0px"
   viewBox="0 0 37 37"
   xml:space="preserve"
   width="74"
   height="74"
   sodipodi:docname="Sass.svg"
   inkscape:version="0.92.1 r15371"><metadata
     id="metadata4496"><rdf:RDF><cc:Work
         rdf:about=""><dc:format>image/svg+xml</dc:format><dc:type
           rdf:resource="http://purl.org/dc/dcmitype/StillImage" /><dc:title></dc:title></cc:Work></rdf:RDF></metadata><defs
     id="defs4494" /><sodipodi:namedview
     pagecolor="#ffffff"
     bordercolor="#666666"
     borderopacity="1"
     objecttolerance="10"
     gridtolerance="10"
     guidetolerance="10"
     inkscape:pageopacity="0"
     inkscape:pageshadow="2"
     inkscape:window-width="1920"
     inkscape:window-height="1017"
     id="namedview4492"
     showgrid="false"
     inkscape:zoom="6.2461099"
     inkscape:cx="32.38493"
     inkscape:cy="42.41984"
     inkscape:window-x="-8"
     inkscape:window-y="-8"
     inkscape:window-maximized="1"
     inkscape:current-layer="Layer_1" /><path
     d="m 1.0378434,19.082783 c 0,0.198095 0.058329,0.328844 0.091017,0.455928 0.2130296,0.826477 0.6709307,1.535731 1.2142126,2.18271 0.7737824,0.922 1.7214262,1.664223 2.6921765,2.362205 0.8419744,0.605275 1.7011377,1.197024 2.5464934,1.79779 0.1451194,0.10313 0.2823489,0.221765 0.4398667,0.348287 -0.1355387,0.07326 -0.2482527,0.137792 -0.3654754,0.197249 -1.1155879,0.565826 -2.1889079,1.200123 -3.178256,1.968552 -0.5962576,0.463255 -1.1727903,0.955534 -1.5799699,1.598849 -0.6551508,1.034716 -0.88706,2.13706 -0.3987262,3.314077 0.1425833,0.343778 0.3601216,0.64078 0.6669858,0.860291 0.099471,0.07101 0.211057,0.141456 0.3274343,0.169071 0.2981289,0.07017 0.6018934,0.116095 0.9036854,0.171607 l 0.8546548,-5.63e-4 c 0.9451077,-0.08426 1.8053981,-0.408026 2.5828437,-0.944545 1.215058,-0.838592 2.0336441,-1.962916 2.3855939,-3.405939 0.255861,-1.048805 0.266287,-2.098735 -0.03522,-3.14275 -0.0279,-0.09694 -0.06312,-0.191896 -0.09975,-0.285731 -0.03663,-0.09384 -0.07974,-0.185132 -0.1304663,-0.302073 l 1.9375563,-1.114179 0.02903,0.0248 c -0.03522,0.115251 -0.0727,0.230219 -0.104546,0.346596 -0.230218,0.840847 -0.383228,1.696347 -0.328279,2.569036 0.05862,0.929892 0.318135,1.800326 0.862543,2.577208 0.440149,0.628381 1.488954,0.65177 1.956717,0.02113 0.165973,-0.224019 0.326872,-0.458182 0.447757,-0.708125 0.315882,-0.652333 0.608374,-1.316219 0.910167,-1.975597 l 0.0527,-0.120605 c -0.02169,0.312219 -0.04706,0.586396 -0.05861,0.860855 -0.01803,0.428596 0.007,0.854655 0.153573,1.262397 0.125394,0.348851 0.338706,0.609502 0.738277,0.655433 0.273332,0.03128 0.491153,-0.09384 0.692065,-0.25248 0.313907,-0.247686 0.568923,-0.553705 0.758283,-0.901428 0.535674,-0.983713 1.085719,-1.961508 1.571235,-2.970017 0.525247,-1.090791 0.984557,-2.213424 1.472327,-3.322812 l 0.08059,-0.196686 c 0.11525,0.452829 0.195558,0.896359 0.343495,1.316219 0.17189,0.487207 0.384637,0.96286 0.616265,1.42527 0.109614,0.218384 0.09693,0.360122 -0.05494,0.543282 -0.635708,0.766456 -1.260427,1.542211 -1.885708,2.31712 -0.138356,0.171043 -0.276149,0.345187 -0.3914,0.532011 -0.0696,0.113559 -0.115813,0.251915 -0.135257,0.384355 -0.03748,0.253043 0.118914,0.497069 0.38971,0.555399 0.247407,0.05326 0.510876,0.07299 0.763075,0.05438 0.872688,-0.06425 1.665068,-0.370547 2.365586,-0.889596 0.90763,-0.67234 1.198997,-1.589833 0.979204,-2.677241 -0.05946,-0.29503 -0.164562,-0.581888 -0.26685,-0.866209 -0.04593,-0.128212 -0.04903,-0.218102 0.03466,-0.337579 0.725597,-1.036124 1.345525,-2.135368 1.922058,-3.259973 0.02282,-0.04424 0.04622,-0.08848 0.08623,-0.135821 0.186824,0.972159 0.468045,1.909095 0.971877,2.759241 -0.256988,0.24769 -0.51144,0.472272 -0.741659,0.71968 -0.506932,0.544973 -0.946516,1.136721 -1.17589,1.858373 -0.09863,0.311091 -0.174424,0.627255 -0.130467,0.95948 0.0682,0.515948 0.490871,0.851273 0.998366,0.733769 1.086001,-0.251353 2.0235,-0.763075 2.708519,-1.669578 0.461002,-0.610347 0.502988,-1.29114 0.309965,-2.004338 -0.05297,-0.193869 -0.115814,-0.384637 -0.183442,-0.606966 0.267977,-0.08313 0.529192,-0.182879 0.799425,-0.24459 1.403008,-0.320108 2.7908,-0.264314 4.142807,0.242335 0.78928,0.295875 1.42696,0.790972 1.805116,1.569826 0.461846,0.952153 0.206548,1.855556 -0.690938,2.45745 -0.08369,0.05607 -0.179497,0.10032 -0.248816,0.17048 -0.04254,0.04311 -0.0682,0.129339 -0.05776,0.188796 0.006,0.03466 0.0975,0.07805 0.150191,0.07749 0.295029,-0.0022 0.534266,-0.156955 0.76392,-0.315882 0.575405,-0.398162 0.995265,-0.933837 1.085719,-1.639145 l 0.01776,-0.05297 -0.0217,-0.45931 c -0.0087,-0.02648 0.0065,-0.0527 0.0045,-0.0727 -0.122295,-1.027107 -0.670931,-1.823714 -1.468947,-2.44815 -0.924256,-0.72278 -2.01561,-1.020345 -3.169802,-1.067402 -0.940599,-0.03832 -1.865137,0.101437 -2.751633,0.423522 -0.252762,0.09158 -0.503269,0.200069 -0.757439,0.302357 -0.03409,-0.06171 -0.07073,-0.120887 -0.100884,-0.182034 -0.260933,-0.534265 -0.577096,-1.04486 -0.646979,-1.657462 -0.04959,-0.435075 -0.110459,-0.869589 -0.007,-1.299875 0.09947,-0.413941 0.229091,-0.82084 0.351105,-1.229147 0.06284,-0.210211 0.01859,-0.327998 -0.182034,-0.422678 -0.06988,-0.03296 -0.145965,-0.06171 -0.221483,-0.0727 -0.493124,-0.07157 -0.979486,-0.03072 -1.457112,0.108206 -0.169071,0.04931 -0.291929,0.143992 -0.329406,0.331097 -0.02142,0.10736 -0.06509,0.210212 -0.09553,0.316163 -0.124831,0.44043 -0.213312,0.889315 -0.415069,1.308892 -0.505523,1.052469 -1.08262,2.065205 -1.673241,3.070614 -0.06397,0.108488 -0.131312,0.215002 -0.211903,0.346597 -0.207394,-0.43395 -0.428596,-0.823376 -0.495661,-1.279869 -0.0758,-0.516231 -0.135538,-1.031616 -0.007,-1.543902 0.09553,-0.3821 0.220356,-0.757156 0.335324,-1.134185 0.05438,-0.179215 0.0293,-0.273332 -0.133002,-0.36773 -0.082,-0.04762 -0.174707,-0.08989 -0.267132,-0.103694 -0.51144,-0.0758 -1.015273,-0.03607 -1.508679,0.123422 -0.153009,0.04959 -0.233318,0.148501 -0.280094,0.306301 -0.137512,0.465509 -0.254734,0.94229 -0.447757,1.384974 -0.781672,1.792155 -1.585887,3.57501 -2.389257,5.357583 -0.167662,0.372239 -0.364066,0.731515 -0.553145,1.093891 -0.0479,0.09186 -0.117785,0.172734 -0.177524,0.25896 -0.0479,-0.05664 -0.0665,-0.09552 -0.06622,-0.134411 0.0028,-0.229092 -0.02593,-0.464946 0.01775,-0.686429 0.132157,-0.670085 0.284321,-1.336508 0.444657,-2.000394 0.132453,-0.548354 0.286589,-1.091637 0.4334,-1.636328 0.04931,-0.182314 0.05016,-0.352794 -0.08087,-0.506086 -0.220088,-0.256706 -0.679962,-0.313063 -0.95273,-0.115251 l -0.120603,0.0682 0.02339,-0.194432 c 0.05749,-0.41676 0.06904,-0.832111 -0.04537,-1.242672 -0.142584,-0.511723 -0.507777,-0.806189 -1.038661,-0.789845 -0.247407,0.0076 -0.507213,0.04988 -0.736305,0.140048 -0.963423,0.377592 -1.704237,1.046268 -2.334872,1.850765 -0.0572,0.07299 -0.132721,0.139484 -0.213312,0.184288 -0.815204,0.451983 -1.632945,0.898331 -2.450404,1.34637 L 9.3085227,25.522421 C 9.0644966,25.289667 8.8427316,25.048177 8.5910973,24.843319 7.8226689,24.216628 7.0418421,23.605437 6.2680597,22.98579 5.5821943,22.436592 4.9177447,21.864567 4.4094041,21.13728 4.0312483,20.596251 3.787504,20.004221 3.7641158,19.335262 c -0.029587,-0.8524 0.2121843,-1.631254 0.6461336,-2.356288 0.555117,-0.927636 1.312274,-1.672114 2.1446676,-2.346425 0.880579,-0.712917 1.8330131,-1.318192 2.820107,-1.870773 1.381029,-0.772937 2.801509,-1.457112 4.324558,-1.908813 1.561654,-0.463255 3.146132,-0.728416 4.780487,-0.543564 0.642471,0.0727 1.266343,0.219793 1.839213,0.533983 0.438739,0.240362 0.798579,0.555117 0.96596,1.047114 0.165126,0.484107 0.160053,0.974695 0.04565,1.466411 -0.232473,0.995828 -0.777728,1.816669 -1.463875,2.550156 -1.125449,1.202378 -2.498307,2.020964 -4.0439,2.561709 -0.89185,0.311938 -1.809343,0.507778 -2.751632,0.58696 -0.768993,0.06452 -1.521923,-0.0036 -2.250056,-0.271078 -0.482135,-0.177243 -0.9019947,-0.44832 -1.2395735,-0.841692 -0.060302,-0.07044 -0.1375112,-0.146811 -0.2499435,-0.08087 -0.110178,0.06481 -0.1296212,0.169633 -0.092707,0.275867 0.061711,0.176397 0.1186316,0.360122 0.2147205,0.517921 0.2414899,0.395908 0.5937215,0.683048 0.9814575,0.929328 0.744758,0.473681 1.577152,0.63289 2.44026,0.669803 1.309738,0.05664 2.587634,-0.138919 3.847496,-0.490306 1.798636,-0.501578 3.362544,-1.387511 4.61677,-2.785165 1.044296,-1.163773 1.790182,-2.477174 1.949954,-4.063062 0.07805,-0.774064 -0.0051,-1.532348 -0.367449,-2.238502 C 22.529323,9.9129269 21.904324,9.3440027 21.157029,8.9520396 20.068774,8.3814237 18.894293,8.0491992 17.682054,8.0491992 h -1.214495 c -1.468101,0 -2.887454,0.4207054 -4.267074,0.9225649 -1.044296,0.3801279 -2.068304,0.828731 -3.0624425,1.3252369 -2.1649561,1.081773 -4.1811296,2.386157 -5.8371816,4.17972 -0.8250673,0.893542 -1.523613,1.879508 -1.9254387,3.040463 -0.1175045,0.339833 -0.2290915,0.704182 -0.3130635,1.055568 m 7.8446199,10.147932 c -0.093834,1.25648 -0.6633225,2.275135 -1.5940592,3.100202 -0.523557,0.463818 -1.1240413,0.79407 -1.8234324,0.910167 -0.2536068,0.04199 -0.513131,0.05213 -0.7591296,-0.05298 C 4.3795348,32.528168 4.3009168,32.216795 4.2941539,31.885134 4.2837227,31.356504 4.4688608,30.878597 4.7227493,30.423795 5.0541288,29.83092 5.5399265,29.378936 6.0586932,28.956822 6.8758705,28.291526 7.7623669,27.728519 8.670279,27.197073 l 0.068474,-0.02818 c 0.1403291,0.518485 0.2071122,1.030488 0.1682256,1.551791 z m 7.0891544,-5.460716 c -0.06622,0.401261 -0.149066,0.802806 -0.266288,1.19167 -0.405207,1.346088 -0.925664,2.650472 -1.488389,3.937386 -0.103982,0.238107 -0.255298,0.455364 -0.386892,0.681075 -0.02029,0.03494 -0.05044,0.06509 -0.07974,0.09411 -0.162872,0.1609 -0.317291,0.152447 -0.399571,-0.05804 -0.09581,-0.24459 -0.1547,-0.506368 -0.205422,-0.765329 -0.03409,-0.173861 -0.02592,-0.356459 -0.03663,-0.534547 0.01098,-1.266343 0.397317,-2.417154 1.052749,-3.488502 0.270232,-0.441838 0.564416,-0.862826 1.013864,-1.142357 0.138074,-0.08594 0.293056,-0.154981 0.449447,-0.19894 0.239517,-0.06734 0.386609,0.0434 0.346878,0.283476 z m 4.836561,6.16208 1.738333,-2.029699 c 0.07242,0.753775 -1.208859,2.258509 -1.738333,2.029699 z m 5.552015,-1.365813 c -0.122858,0.07044 -0.256706,0.121167 -0.382664,0.18626 -0.11525,0.05973 -0.153291,-5.63e-4 -0.156673,-0.09976 -0.0028,-0.06734 0.0076,-0.137793 0.02621,-0.203168 0.234727,-0.827885 0.666704,-1.534602 1.309457,-2.109445 l 0.04509,-0.02311 c 0.305738,0.855219 -0.04762,1.794409 -0.841411,2.249211 z"
     id="path4498"
     inkscape:connector-curvature="0"
     style="clip-rule:evenodd;fill:#cb6699;fill-rule:evenodd;stroke-width:0.28178525" /></svg>