<?xml version="1.0" encoding="UTF-8" standalone="no"?>
<!-- Generator: Adobe Illustrator 22.1.0, SVG Export Plug-In . SVG Version: 6.00 Build 0)  -->

<svg
   xmlns:dc="http://purl.org/dc/elements/1.1/"
   xmlns:cc="http://creativecommons.org/ns#"
   xmlns:rdf="http://www.w3.org/1999/02/22-rdf-syntax-ns#"
   xmlns:svg="http://www.w3.org/2000/svg"
   xmlns="http://www.w3.org/2000/svg"
   xmlns:sodipodi="http://sodipodi.sourceforge.net/DTD/sodipodi-0.dtd"
   xmlns:inkscape="http://www.inkscape.org/namespaces/inkscape"
   version="1.1"
   id="Layer_1"
   x="0px"
   y="0px"
   viewBox="0 0 37 37"
   xml:space="preserve"
   width="74"
   height="74"
   sodipodi:docname="svg.svg"
   inkscape:version="0.92.1 r15371"><metadata
     id="metadata4496"><rdf:RDF><cc:Work
         rdf:about=""><dc:format>image/svg+xml</dc:format><dc:type
           rdf:resource="http://purl.org/dc/dcmitype/StillImage" /><dc:title></dc:title></cc:Work></rdf:RDF></metadata><defs
     id="defs4494"><clipPath
       clipPathUnits="userSpaceOnUse"
       id="clipPath4157"><path
         d="M 27.642964,3.2951379 40.728548,16.380722 H 29.65613 c -0.977824,0 -2.013166,-1.035372 -2.013166,-2.013167 z"
         id="path4159"
         inkscape:connector-curvature="0"
         style="fill:#f9f8f2;fill-opacity:1;stroke-width:1.00658333" /></clipPath><clipPath
       id="clipPath4157-4"
       clipPathUnits="userSpaceOnUse"><path
         style="fill:#f9f8f2;fill-opacity:1;stroke-width:1.00658333"
         inkscape:connector-curvature="0"
         id="path4159-0"
         d="M 27.642964,3.2951379 40.728548,16.380722 H 29.65613 c -0.977824,0 -2.013166,-1.035372 -2.013166,-2.013167 z" /></clipPath><linearGradient
       id="id0"
       gradientUnits="userSpaceOnUse"
       x1="250.00301"
       y1="85.004997"
       x2="250.00301"
       y2="415.00601"><stop
         offset="0"
         style="stop-color:#CBCBCB"
         id="stop7888" /><stop
         offset="1"
         style="stop-color:#B1B1B1"
         id="stop7890" /></linearGradient><linearGradient
       id="id1"
       gradientUnits="userSpaceOnUse"
       x1="250.00301"
       y1="90.004997"
       x2="250.00301"
       y2="410.00601"><stop
         offset="0"
         style="stop-color:#F2F2F2"
         id="stop7893" /><stop
         offset="1"
         style="stop-color:#D8D8D8"
         id="stop7895" /></linearGradient><linearGradient
       id="id3"
       gradientUnits="userSpaceOnUse"
       x1="250.00301"
       y1="325.604"
       x2="250.00301"
       y2="174.40601"><stop
         offset="0"
         style="stop-color:#E8F6FF"
         id="stop7903" /><stop
         offset="1"
         style="stop-color:#74C7FF"
         id="stop7905" /></linearGradient><linearGradient
       id="id4"
       gradientUnits="userSpaceOnUse"
       x1="331.65302"
       y1="302.70401"
       x2="333.34698"
       y2="348.62"><stop
         offset="0"
         style="stop-color:#B6DB49"
         id="stop7908" /><stop
         offset="1"
         style="stop-color:#7CAF00"
         id="stop7910" /></linearGradient><linearGradient
       id="id2"
       gradientUnits="userSpaceOnUse"
       x1="250.00301"
       y1="281.05399"
       x2="250.00301"
       y2="383.95401"><stop
         offset="0"
         style="stop-color:#83C117"
         id="stop7898" /><stop
         offset="1"
         style="stop-color:#5E9300"
         id="stop7900" /></linearGradient></defs><sodipodi:namedview
     pagecolor="#ffffff"
     bordercolor="#666666"
     borderopacity="1"
     objecttolerance="10"
     gridtolerance="10"
     guidetolerance="10"
     inkscape:pageopacity="0"
     inkscape:pageshadow="2"
     inkscape:window-width="1366"
     inkscape:window-height="705"
     id="namedview4492"
     showgrid="false"
     inkscape:zoom="3.9480129"
     inkscape:cx="-9.9335789"
     inkscape:cy="8.4704796"
     inkscape:window-x="-8"
     inkscape:window-y="-8"
     inkscape:window-maximized="1"
     inkscape:current-layer="layer4" /><g
     inkscape:groupmode="layer"
     id="layer2"
     inkscape:label="Layer 2" /><g
     inkscape:groupmode="layer"
     id="layer4"
     inkscape:label="Layer 3"
     style="display:inline"><path
       inkscape:connector-curvature="0"
       style="fill:none;stroke:#66798f;stroke-width:0.4615396;stroke-miterlimit:10"
       d="m 4.3674899,29.616843 v -1.866005 c 0,-7.90202 6.4057081,-14.307727 14.3077281,-14.307727 v 0 c 7.90202,0 14.307728,6.405707 14.307728,14.307727 v 1.866466"
       id="path8569" /><line
       style="fill:none;stroke:#66798f;stroke-width:0.4615396;stroke-miterlimit:10"
       x1="2.9828708"
       y1="13.673879"
       x2="34.367565"
       y2="13.673879"
       id="line8571" /><g
       transform="matrix(0.46153962,0,0,0.46153962,0.21363311,3.2892384)"
       id="g8577"><rect
         x="32.5"
         y="15.5"
         style="fill:#8bb7f0"
         width="15"
         height="15"
         id="rect8573" /><path
         inkscape:connector-curvature="0"
         style="fill:#4e7ab5"
         d="M 47,16 V 30 H 33 V 16 h 14 m 1,-1 H 32 v 16 h 16 z"
         id="path8575" /></g><g
       transform="matrix(0.46153962,0,0,0.46153962,0.21363311,3.2892384)"
       id="g8583"><rect
         x="64.5"
         y="51.5"
         style="fill:#8bb7f0"
         width="13"
         height="13"
         id="rect8579" /><path
         inkscape:connector-curvature="0"
         style="fill:#4e7ab5"
         d="M 77,52 V 64 H 65 V 52 h 12 m 1,-1 H 64 v 14 h 14 z"
         id="path8581" /></g><g
       transform="matrix(0.46153962,0,0,0.46153962,0.21363311,3.2892384)"
       id="g8589"><rect
         x="2.5"
         y="51.5"
         style="fill:#8bb7f0"
         width="13"
         height="13"
         id="rect8585" /><path
         inkscape:connector-curvature="0"
         style="fill:#4e7ab5"
         d="M 15,52 V 64 H 3 V 52 h 12 m 1,-1 H 2 v 14 h 14 z"
         id="path8587" /></g><g
       transform="matrix(0.46153962,0,0,0.46153962,0.21363311,3.2892384)"
       id="g8597"><circle
         style="fill:#f78f8f"
         cx="73.5"
         cy="22.5"
         r="4"
         id="circle8591" /><g
         id="g8595"><path
           inkscape:connector-curvature="0"
           style="fill:#c74343"
           d="M 73.5,19 C 75.43,19 77,20.57 77,22.5 77,24.43 75.43,26 73.5,26 71.57,26 70,24.43 70,22.5 70,20.57 71.57,19 73.5,19 m 0,-1 C 71.015,18 69,20.015 69,22.5 69,24.985 71.015,27 73.5,27 75.985,27 78,24.985 78,22.5 78,20.015 75.985,18 73.5,18 Z"
           id="path8593" /></g></g><g
       transform="matrix(0.46153962,0,0,0.46153962,0.21363311,3.2892384)"
       id="g8605"><circle
         style="fill:#f78f8f"
         cx="6.5"
         cy="22.5"
         r="4"
         id="circle8599" /><g
         id="g8603"><path
           inkscape:connector-curvature="0"
           style="fill:#c74343"
           d="M 6.5,19 C 8.43,19 10,20.57 10,22.5 10,24.43 8.43,26 6.5,26 4.57,26 3,24.43 3,22.5 3,20.57 4.57,19 6.5,19 m 0,-1 C 4.015,18 2,20.015 2,22.5 2,24.985 4.015,27 6.5,27 8.985,27 11,24.985 11,22.5 11,20.015 8.985,18 6.5,18 Z"
           id="path8601" /></g></g></g><g
     inkscape:groupmode="layer"
     id="layer5"
     inkscape:label="Layer 4" /><g
     inkscape:groupmode="layer"
     id="layer6"
     inkscape:label="Layer 5" /></svg>