<?xml version="1.0" encoding="UTF-8" standalone="no"?>
<!-- Generator: Adobe Illustrator 22.1.0, SVG Export Plug-In . SVG Version: 6.00 Build 0)  -->

<svg
   xmlns:dc="http://purl.org/dc/elements/1.1/"
   xmlns:cc="http://creativecommons.org/ns#"
   xmlns:rdf="http://www.w3.org/1999/02/22-rdf-syntax-ns#"
   xmlns:svg="http://www.w3.org/2000/svg"
   xmlns="http://www.w3.org/2000/svg"
   xmlns:sodipodi="http://sodipodi.sourceforge.net/DTD/sodipodi-0.dtd"
   xmlns:inkscape="http://www.inkscape.org/namespaces/inkscape"
   version="1.1"
   id="Layer_1"
   x="0px"
   y="0px"
   viewBox="0 0 37 37"
   xml:space="preserve"
   width="74"
   height="74"
   sodipodi:docname="txt.svg"
   inkscape:version="0.92.1 r15371"><metadata
     id="metadata4496"><rdf:RDF><cc:Work
         rdf:about=""><dc:format>image/svg+xml</dc:format><dc:type
           rdf:resource="http://purl.org/dc/dcmitype/StillImage" /><dc:title></dc:title></cc:Work></rdf:RDF></metadata><defs
     id="defs4494" /><sodipodi:namedview
     pagecolor="#ffffff"
     bordercolor="#666666"
     borderopacity="1"
     objecttolerance="10"
     gridtolerance="10"
     guidetolerance="10"
     inkscape:pageopacity="0"
     inkscape:pageshadow="2"
     inkscape:window-width="1366"
     inkscape:window-height="705"
     id="namedview4492"
     showgrid="false"
     inkscape:zoom="1.3958333"
     inkscape:cx="-130.68657"
     inkscape:cy="-54.599956"
     inkscape:window-x="-8"
     inkscape:window-y="-8"
     inkscape:window-maximized="1"
     inkscape:current-layer="layer4" /><g
     inkscape:groupmode="layer"
     id="layer2"
     inkscape:label="Layer 2" /><g
     inkscape:groupmode="layer"
     id="layer4"
     inkscape:label="Layer 3"
     style="display:inline"><g
       transform="matrix(0.06871642,0,0,0.06871642,0.86849899,1.3190419)"
       id="XMLID_7396_"><g
         id="XMLID_6007_"><polygon
           id="XMLID_6023_"
           points="154.1,6 154.1,236.7 98.1,187.7 42.1,236.7 42.1,6 " /><g
           id="XMLID_6021_"><path
             inkscape:connector-curvature="0"
             d="m 462.5,123.2 h -56.9 c -22.3,0 -40.4,-18.1 -40.4,-40.4 v -57 H 380 v 56.9 c 0,14.1 11.5,25.6 25.6,25.6 h 56.9 z"
             id="XMLID_6022_" /></g><g
           id="XMLID_6019_"><path
             inkscape:connector-curvature="0"
             d="M 429.5,506 H 131.1 C 108.8,506 90.7,487.9 90.7,465.6 V 213.8 h 14.8 v 251.8 c 0,14.1 11.5,25.6 25.6,25.6 h 298.3 c 14.1,0 25.6,-11.5 25.6,-25.6 V 118.8 L 373.1,33.3 H 169.8 V 18.4 h 209.7 l 90.3,94.4 v 352.8 c 0.1,22.3 -18,40.4 -40.3,40.4 z"
             id="XMLID_6020_" /></g><g
           id="XMLID_6008_"><g
             id="XMLID_6017_"><rect
               height="14.8"
               id="XMLID_6018_"
               width="287.79999"
               x="135.89999"
               y="288.10001" /></g><g
             id="XMLID_6015_"><rect
               height="14.8"
               id="XMLID_6016_"
               width="204.8"
               x="135.89999"
               y="326.20001" /></g><g
             id="XMLID_6013_"><rect
               height="14.8"
               id="XMLID_6014_"
               width="134.89999"
               x="135.89999"
               y="364.20001" /></g><g
             id="XMLID_6011_"><rect
               height="14.8"
               id="XMLID_6012_"
               width="277.39999"
               x="135.89999"
               y="402.29999" /></g><g
             id="XMLID_6009_"><rect
               height="14.8"
               id="XMLID_6010_"
               width="254.8"
               x="135.89999"
               y="440.39999" /></g></g></g><g
         id="XMLID_8614_"><path
           inkscape:connector-curvature="0"
           d="m 240.8,167.9 h -21.3 v 59.7 H 208 v -59.7 h -21 v -9.2 h 53.8 z"
           id="XMLID_8619_" /><path
           inkscape:connector-curvature="0"
           d="m 276,184.1 14.5,-25.5 h 13.6 l -21.1,34.3 22,34.8 h -13.8 l -15,-25.9 -15,25.9 h -13.6 l 21.7,-34.8 -21.2,-34.2 h 13.5 z"
           id="XMLID_8617_" /><path
           inkscape:connector-curvature="0"
           d="m 365.1,167.9 h -21.3 v 59.7 h -11.5 v -59.7 h -21 v -9.2 h 53.8 z"
           id="XMLID_8615_" /></g></g></g><g
     inkscape:groupmode="layer"
     id="layer5"
     inkscape:label="Layer 4" /><g
     inkscape:groupmode="layer"
     id="layer6"
     inkscape:label="Layer 5" /></svg>